<?xml version="1.0" encoding="utf-8"?>
<!-- Generator: Adobe Illustrator 27.5.0, SVG Export Plug-In . SVG Version: 6.00 Build 0)  -->
<svg version="1.1" id="Design" xmlns="http://www.w3.org/2000/svg" xmlns:xlink="http://www.w3.org/1999/xlink" x="0px" y="0px"
	 viewBox="0 0 2000 2000" style="enable-background:new 0 0 2000 2000;" xml:space="preserve">
<rect style="fill:#FFFFFF;" width="2000" height="2000"/>
<g>
	<path style="fill:#DAD4D4;" d="M1242.58,2000c-56.841,0-113.683,0-170.524,0c-2.354-2.587-2.621-5.794-2.698-9.06
		c-0.061-2.583-0.097-5.167-0.043-7.749c1.36-64.241-3.085-128.422-1.949-192.66c0.138-7.781-2.274-15.325-1.84-23.14
		c0.547-9.858,2.297-11.641,12.108-12.302c19.729-1.33,39.288,2.276,58.98,1.898c3.871-0.074,7.763,0.153,11.581-0.695
		c10.912-2.424,16.619-9.728,16.047-20.484c-0.528-9.931,10.522-20.128,20.424-18.632c6.112,0.924,12.21,1.65,18.277,0.181
		c11.429-2.767,15.377-11.879,9.866-22.137c-3.995-7.436-10.116-12.436-17.59-16.012c-2.917-1.396-6.007-2.381-8.908-3.801
		c-2.664-1.303-5.497-2.773-4.72-6.389c0.887-4.126,4.404-3.14,7.103-2.783c5.758,0.76,11.433,2.209,17.22,2.687
		c7.827,0.646,15.297-0.79,18.902-8.651c3.395-7.402-0.064-13.674-5.169-19.295c-7.085-7.801-16.053-12.896-24.997-18.094
		c-10.059-5.846-10.193-9.372-0.751-15.623c9.302-6.158,11.808-13.494,5.24-22.865c-7.035-10.038-8.3-20.601-7.788-32.093
		c0.733-16.446,2.397-32.806,4.06-49.171c0.416-4.093,2.031-7.09,5.608-9.551c8.176-5.626,8.474-15.442,0.289-21.149
		c-4.568-3.185-7.529-6.808-8.932-12.011c-1.626-6.031-5.94-8.979-11.828-9.944c-30.981-5.081-62.077-7.609-93.478-4.689
		c-12.524,1.165-25.104,1.604-37.379,4.808c-7.745,2.022-9.506-3.593-10.469-9.274c-2.427-14.324-3.879-28.786-5.715-43.193
		c-5.235-41.076-15.131-81.243-24.021-121.591c-10.213-46.35-17.438-93.332-29.588-139.265
		c-11.559-43.701-22.631-87.527-33.75-131.341c-1.265-4.984-2.961-9.938-2.248-15.237c0.58-2.256,1.303-4.39,4.152-4.591
		c2.976,0.886,4.893,3.099,6.491,5.535c15.1,23.014,33.673,43.273,51.059,64.472c13.332,16.255,25.316,33.436,35.988,51.554
		c2.046,3.473,3.834,8.501,8.789,7.77c4.107-0.606,5.323-5.341,6.751-8.848c10.092-24.797,22.393-48.644,31.626-73.817
		c2.118-5.773,3.763-11.646,5.431-17.531c2.61-9.21,5.453-10.561,13.572-5.297c11.932,7.736,20.274,18.357,26.158,31.507
		c23.806,53.207,35.91,109.598,46.702,166.437c9.211,48.514,17.241,97.21,25.115,145.957
		c12.814,79.335,22.922,159.011,31.119,238.905c3.448,33.606,4.488,67.523,6.893,101.259c4.204,58.98,4.445,118.005,3.107,176.98
		c-0.9,39.669-1.209,79.324-1.563,118.989C1245.258,1993.542,1245.188,1997.12,1242.58,2000z"/>
	<path style="fill:#DAD4D4;" d="M1403.416,2000c-51.028,0-102.056,0-153.084,0c-3.079-3.48-2.785-7.777-2.789-11.95
		c-0.039-38.409-1.371-76.879,0.423-115.207c1.42-30.34,1.673-60.635,1.285-90.926c-0.487-38.016-2.901-75.983-5.329-113.942
		c-2.841-44.413-5.903-88.772-11.442-132.962c-6.58-52.496-12.909-104.975-21.406-157.254
		c-10.822-66.583-21.268-133.195-35.129-199.226c-7.028-33.479-14.143-66.948-24.73-99.538c-2.241-6.9-1.803-13.175,1.496-19.595
		c8.711-16.949,16.45-34.328,22.915-52.281c3.081-8.555,7.489-9.526,14.519-3.731c4.639,3.824,7.27,8.935,9.28,14.488
		c3.193,8.823,4.834,18.078,7.711,26.99c5.446,16.871,16.57,28.963,31.69,37.566c9.7,5.519,14.212,2.724,14.487-8.492
		c0.095-3.869-0.169-7.748,0.267-11.615c0.665-2.745,0.492-6.135,4.69-6.203c3.71,2.644,4.414,6.968,6.021,10.795
		c18.008,42.895,27.117,88.053,34.313,133.739c7.233,45.923,18.884,91.068,24.54,137.271c6.271,51.234,12.196,102.5,15.55,154.039
		c3.817,58.673,12.414,116.817,21.678,174.793c9.835,61.549,17.303,123.308,22.963,185.358
		c4.108,45.036,12.514,89.492,20.763,133.934C1404.96,1990.698,1406.975,1995.518,1403.416,2000z"/>
	<path style="fill:#010001;" d="M1255.889,1062.274c0.02,5.485,0.455,11.007-0.035,16.446c-0.811,8.995-5.71,12.169-13.906,8.527
		c-16.266-7.229-28.183-19.098-35.237-35.576c-4.078-9.526-6.083-19.695-8.918-29.606c-2.657-9.29-6.844-17.443-17.134-21.668
		c-3.377,10.026-6.846,19.96-11.148,29.58c-5.396,12.064-10.115,24.448-17.035,35.764c-1.555,2.543-1.415,4.63-0.544,7.228
		c15.63,46.571,24.716,94.712,34.431,142.721c7.678,37.947,14.472,76.045,20.265,114.309
		c9.412,62.161,20.568,124.065,26.765,186.703c3.492,35.3,8.678,70.438,10.649,105.886c1.594,28.672,3.727,57.308,5.312,85.984
		c2.656,48.064,4.34,96.13,2.33,144.222c-2.051,49.07-1.605,98.133-1.352,147.208c-2.584,0-5.167,0-7.751,0
		c0.275-5.148,0.947-10.311,0.761-15.443c-1.622-44.87,0.19-89.705,1.047-134.552c0.642-33.558,1.175-67.131-0.599-100.668
		c-1.941-36.71-4.174-73.406-6.393-110.099c-2.922-48.331-8.982-96.283-14.558-144.305c-4.832-41.619-10.871-83.066-17.679-124.428
		c-5.861-35.609-10.146-71.505-16.92-106.952c-10.764-56.317-19.707-113.065-36.702-168.029
		c-6.196-20.039-14.577-39.254-22.92-58.439c-6.161-14.168-15.341-22.306-29.929-28.963c-8.177,36.372-26.818,68.58-40.465,102.767
		c-0.714,1.789-1.578,3.55-2.603,5.178c-3.845,6.103-7.516,6.232-11.864,0.452c-0.966-1.284-1.795-2.683-2.573-4.092
		c-13.957-25.274-31.53-47.952-50.323-69.719c-15.408-17.847-30.136-36.191-42.924-56.033c-1.082-0.694-2.162-1.388-2.6-2.676
		c-0.015,0.033-0.553,0.695-0.553,0.695s0.47,0.712,0.485,0.756c0.149,1.801-0.581,3.666,0.678,5.28
		c4.573,24.095,11.197,47.685,17.524,71.35c17.079,63.874,32.288,128.168,44.656,193.147c6.631,34.839,14.807,69.381,21.931,104.13
		c5.123,24.987,7.557,50.399,11.041,75.643c0.657,4.761,1.333,9.519,1.962,14.003c40.628-8.688,80.994-8.493,121.504-3.624
		c5.123,0.616,10.21,1.645,15.348,1.996c9.062,0.619,14.137,5.469,15.962,14.086c0.878,4.146,1.121,8.561,7.413,7.771
		c2.054-0.258,3.263,1.977,3.926,3.792c1.105,3.023,2.068,6.115,2.832,9.242c2.01,8.222,0.636,11.035-7.538,13.752
		c-2.767,0.92-4.454,1.543-4.634,4.856c-1.19,21.901-4.418,43.672-3.989,65.687c0.079,4.081,0.517,7.391,3.905,10.173
		c1.923,1.579,3.276,3.985,4.538,6.215c7.336,12.954,4.265,21.989-9.347,27.856c-1.958,0.844-4.755,0.728-4.898,3.792
		c-0.14,3.005,2.452,3.359,4.446,4.288c9.705,4.521,18.781,10.007,26.705,17.296c3.355,3.086,6.342,6.428,8.367,10.544
		c5.367,10.908,0.922,20.637-10.697,24.241c-7.865,2.439-15.349,0.207-22.943-1.027c-2.859-0.465-5.668-1.252-8.484-1.955
		c-1.366-0.341-2.517-0.407-2.888,1.312c-0.326,1.511,0.43,2.51,1.743,2.971c2.738,0.96,5.549,1.711,8.286,2.675
		c9.455,3.328,17.05,9.131,22.415,17.602c8.175,12.91,1.777,26.5-13.428,28.544c-6.473,0.87-12.872,0.158-19.136-1.804
		c-3.214-1.006-6.207-1.541-7.536,2.987c-1.323,4.508-5.677,5.739-9.478,7.236c5.43,16.852-1.354,27.724-19.025,30.199
		c-11.585,1.623-23.204,0.368-34.762-0.997c-11.889-1.405-23.799-2.073-35.761-1.14c-7.233,0.564-7.301,0.576-7.162,8.031
		c0.665,35.836,1.09,71.68,2.135,107.505c1.233,42.296,0.991,84.597,1.178,126.897c-2.584,0-5.167,0-7.751,0
		c-3.075-3.48-2.791-7.774-2.811-11.952c-0.071-14.208-0.324-28.423,0.025-42.623c1.3-52.95-2.654-105.829-1.996-158.767
		c0.052-4.197-0.026-8.395,0.156-12.591c0.496-11.451,0.04-11.934-10.885-9.616c-13.026,2.764-25.72,6.983-37.268,13.417
		c-31.664,17.645-65.966,19.677-100.688,16.897c-18.722-1.499-36.673,0.123-54.634,4.488c-7.214,1.753-14.29,4.049-21.436,6.071
		c-15.073,4.265-28.651,9.596-37.84,24.343c-8.283,13.293-22.413,18.409-38.525,18.318c-16.18-0.091-32.281-0.71-48.267-3.021
		c-7.24-1.047-10.527,1.052-11.688,8.613c-6.96,45.311-13.348,90.682-16.918,136.408c-0.278,3.559-0.256,7.137-2.84,10.012
		c-2.584,0-5.167,0-7.751,0c-1.275-18.435,1.087-36.691,2.948-54.945c3.502-34.347,8.476-68.476,16.414-102.121
		c0.203-0.861-0.12-1.845-0.259-3.515c-17.685-1.366-35.349-2.667-53.001-4.108c-25.725-2.099-51.465-4.271-76.963-8.27
		c-34.18-5.361-61.619-23.632-86.126-46.941c-23.096-21.968-34.875-49.721-41.432-80.366c-6.72-31.402-6.504-62.723-1.128-94.205
		c1.682-9.847,2.691-19.794,4.824-29.584c3.523-16.179,8.596-31.757,17.291-45.927c13.426-21.877,20.372-45.868,23.345-71.104
		c2.009-17.049,5.77-33.675,10.863-50.012c7.096-22.763,14.126-45.572,23.008-67.712c9.973-24.857,12.269-50.503,10.027-76.95
		c-1.911-22.548-2.321-45.148,2.771-67.435c1.215-5.319,2.746-10.636,4.806-15.679c18.891-46.269,33.916-93.898,49.896-141.191
		c4.799-14.203,13.414-25.594,25.597-34.317c10.06-7.202,21.057-12.596,32.876-16.063c32.945-9.664,63.963-23.868,94.34-39.596
		c18.91-9.791,38.16-18.813,58.093-26.311c40.041-15.062,73.291-40.213,103.558-69.721c7.866-7.669,15.518-15.54,24.456-21.969
		c8.081-5.813,16.402-11.251,26.71-12.488c0.761-10.834-2.025-21.021-1.594-31.281c0.483-11.5-2.109-21.911-6.766-32.475
		c-6.654-15.092-9.211-31.471-11.172-48.525c-8.96,2.67-17.163,1.73-24.673-3.689c-8.251-5.954-13.395-14.03-15.598-23.728
		c-4.989-21.966-12.264-43.417-14.639-65.982c-0.991-9.422-0.628-18.692,1.438-27.88c0.627-2.79,1.783-5.543,3.149-8.069
		c4.005-7.404,9.025-9.243,16.903-6.175c2.975,1.159,5.724,2.899,8.576,4.374c0.732,0.164,1.581,1.598,2.135-0.194
		c-4.953-17.33-11.118-34.321-14.673-52.043c-4.388-21.873-7.793-43.771-5.006-66.252c4.584-36.971,18.556-68.79,48.177-92.821
		c17.042-13.826,33.509-28.361,50.17-42.653c13.994-12.003,29.852-20.074,47.988-23.771c24.357-4.964,48.757-9.533,73.718-9.881
		c40.531-0.564,74.947,14.35,103.947,42.046c22.781,21.757,41.314,46.997,57.73,73.775c11.538,18.82,13.891,40.04,14.417,61.455
		c0.648,26.36-3.797,52.012-12.25,76.988c-2.245,6.632-4.972,13.152-6,20.036c2.074,1.543,3.303-0.119,4.645-0.482
		c8.891-2.407,14.679-0.623,20.321,6.741c5.951,7.768,7.986,16.892,8.004,26.389c0.04,20.961-5.31,40.889-13.243,60.054
		c-4.301,10.393-10.022,20.201-15.151,30.248c-0.877,1.719-1.906,3.377-3.017,4.956c-8.057,11.442-15.434,14.197-29.572,10.759
		c-4.056,17.247-12.926,32.722-18.445,49.494c-1.305,3.966-2.66,8.091-4.917,11.538c-10.311,15.75-12.337,33.63-13.924,51.663
		c-0.65,7.39-0.392,14.957-1.92,22.152c-2.593,12.219,4.095,21.681,8.053,31.997c0.419,1.093,1.716,1.87,2.655,2.74
		c16.576,15.358,33.248,30.613,49.712,46.09c12.378,11.636,26.406,20.464,42.037,27.115c32.028,13.629,63.834,27.772,96.346,40.249
		c15.657,6.008,30.759,13.294,45.744,20.828c22.829,11.477,39.151,28.997,49.711,52.189c8.996,19.758,14.797,40.545,20.232,61.439
		c6.25,24.026,11.67,48.222,15.004,72.881c3.741,27.667,1.538,54.682-7.028,81.227c-1.879,5.824-3.471,11.741-5.265,17.593
		c-3.826,12.485-3.397,24.802,1.35,36.964c9.786,25.071,15.794,51.073,19.198,77.721c3.189,24.966,3.066,49.533-7.569,73.121
		c-5.813,12.892-7.543,26.579-6.602,40.668c1.313,19.647,3.37,39.219,6.044,58.718c0.917,6.69,2.362,13.343,5.17,19.581
		c7.357,16.344,11.547,33.578,12.995,51.33c2.443,29.955,8.301,59.383,12.759,89.028c3.885,25.839,6.553,51.831,8.984,77.832
		c3.392,36.289,6.44,72.612,9.3,108.947c1.724,21.909,1.125,43.881,0.648,65.834c-0.07,3.222-0.059,6.446-0.085,9.669
		c-1.292,0-2.584,0-3.875,0c-5.301-2.935-4.287-8.139-4.647-12.866c-1.125-14.785,1.048-29.485,0.645-44.357
		c-0.798-29.424-4.606-58.513-6.895-87.744c-3.373-43.083-7.169-86.196-15.005-128.763c-5.031-27.327-8.554-54.825-11.573-82.412
		c-1.167-10.664-3.213-21.244-7.751-30.89c-12.013-25.536-11.823-53.264-15.749-80.312c-3.559-24.518,1.284-47.304,10.593-69.801
		c8.661-20.928,5.267-42.618,1.813-64.003c-3.35-20.738-8.103-41.188-16.319-60.655c-7.611-18.033-7.999-36.223-2.078-54.862
		c4.391-13.823,8.94-27.594,11.52-41.986c2.894-16.147,2.213-32.244-0.062-48.162c-5.676-39.719-15.604-78.467-28.414-116.498
		c-11.844-35.164-36.183-57.438-69.857-71.811c-29.702-12.678-60.038-23.748-89.616-36.691c-7.394-3.235-14.663-6.746-22.106-9.821
		c-1.796-0.781-2.997-2.597-6.028-3.396c2.751,1.065,3.964,2.558,5.588,3.487c6.229,5.256,11.822,11.065,15.652,18.302
		c5.355,10.121,3.152,16.886-7.002,22.23c-8.815,4.64-8.893,4.922-2.116,11.97c10.804,11.235,22.814,21.055,36.428,28.611
		c16.705,9.271,26.303,22.4,28.675,41.915c6.033,49.629,12.798,99.147,17.311,148.977c6.318,69.76,16.233,139.067,29.703,207.85
		c8.693,44.394,15.687,89.224,13.989,134.49c-1.316,35.068-2.913,70.181-4.89,105.251c-1.634,28.989-0.534,58.018,2.038,86.993
		c6.628,74.678,20.017,148.331,33.132,222.032c0.794,4.464,1.763,8.972-1.62,12.922c-1.938,0-3.876,0-5.813,0
		c-4.035-2.029-4.56-6.015-5.345-9.785c-12.709-61.022-22.992-122.436-30.506-184.327c-3.501-28.837-5.794-57.787-7.082-86.744
		c-1.015-22.819,0.44-45.84,2.175-68.605c5.347-70.145,5.228-139.885-9.628-209.031c-13.106-60.999-21.715-122.721-27.554-184.755
		c-5.413-57.517-11.585-114.904-19.399-172.143c-2.025-14.83-8.492-25.271-21.302-32.376c-16.254-9.014-29.862-21.379-42.918-34.406
		c-2.287-2.282-4.483-4.653-6.272-7.362c-6.381-9.661-4.755-15.047,5.897-19.487c1.787-0.745,3.633-1.344,5.442-2.039
		c5.52-2.12,7.331-6.103,3.176-10.372c-11.89-12.217-20.806-27.312-35.372-36.927c-14.125-9.324-26.22-20.973-37.657-33.274
		c-7.226-7.772-17.276-12.708-22.401-22.503c-0.068-1.125-2.296-1.472-1.135-3.074c-0.914,1.782,1.368,2.365,1.434,3.801
		c8.449,15.975,12.156,33.365,14.29,50.992c2.286,18.887,8.692,36.2,16.443,53.38c21.519,47.696,42.668,95.894,53.108,147.246
		c16.834,82.798,35.819,165.286,43.796,249.71c3.153,33.375,8.541,66.586,10.606,100.039c5.419,87.79,21.698,174.086,34.31,260.896
		c5.519,37.985,8.045,76.32,12.284,114.46c4.387,39.474,11.557,78.532,17.039,117.839c0.862,6.181,3.755,12.568,0.064,18.846
		c-2.584,0-5.167,0-7.751,0c-4.781-27.621-9.548-55.244-14.345-82.862c-4.97-28.616-8.117-57.467-10.705-86.367
		c-4.372-48.833-9.673-97.532-18.313-145.827c-6.076-33.967-9.45-68.332-14.729-102.414c-6.33-40.866-7.951-82.155-11.838-123.24
		c-6.832-72.221-14.249-144.365-29.824-215.416c-5.308-24.217-8.994-48.8-13.068-73.274c-5.364-32.223-13.856-63.549-25.666-94.001
		c-2.557-6.594-4.653-13.367-6.962-20.057c-0.635-0.652-1.061-1.96-1.569-2.091c-1.383-0.357-0.646,1.103-0.801,1.665
		C1255.03,1058.158,1254.723,1060.275,1255.889,1062.274z"/>
	<path style="fill:#1F2437;" d="M1463.487,2000c0.6-11.428-3.328-22.186-5.057-33.263c-3.86-24.722-8.295-49.354-12.392-74.04
		c-3.151-18.982-6.419-37.951-9.115-56.998c-1.933-13.658-2.581-27.501-4.611-41.141c-1.42-9.542-1.621-19.163-3.039-28.712
		c-1.648-11.095-2.193-22.406-2.453-33.641c-0.381-16.458-1.093-33.011,0.183-49.379c1.558-19.97,0.631-39.962,1.932-59.862
		c1.469-22.463,4.231-44.895,3.319-67.407c-0.778-19.217-2.864-38.376-4.969-57.535c-3.197-29.1-8.775-57.747-14.361-86.392
		c-5.223-26.789-9.204-53.768-12.808-80.77c-2.248-16.84-4.843-33.659-6.615-50.59c-2.173-20.757-3.963-41.538-5.956-62.302
		c-2.42-25.201-5.069-50.419-8.962-75.485c-2.706-17.426-4.149-35.046-6.276-52.565c-0.618-5.092-1.882-10.109-2.446-15.205
		c-1.81-16.342-12.982-25.186-25.927-32.511c-17.324-9.803-31.738-23.062-45.229-37.455c-0.602-0.642-0.821-1.643-1.412-2.881
		c3.656-2.977,8.347-3.233,12.305-5.098c9.493-4.472,11.413-10.205,5.842-19.221c-2.879-4.66-6.258-8.969-10.313-12.746
		c-2.339-2.179-4.289-4.777-6.415-7.186c-0.462-1.851,0.056-2.73,2.089-2.102c14.899,4.376,28.377,12.178,42.801,17.727
		c24.04,9.247,48.125,18.41,71.536,29.2c15.832,7.297,31.353,15.091,44.12,27.39c11.659,11.233,19.255,25.151,25.046,39.847
		c11.702,29.695,18.81,60.759,25.756,91.85c3.792,16.976,6.071,34.184,7.248,51.421c1.166,17.059-2.111,33.918-6.967,50.354
		c-2.097,7.099-3.868,14.328-6.481,21.236c-7.427,19.632-4.115,38.391,3.474,57.106c8.874,21.885,13.546,44.807,16.452,68.198
		c0.956,7.692,1.427,15.333,1.821,23.047c0.677,13.243-2.516,25.609-7.663,37.523c-5.157,11.938-8.857,24.358-9.458,37.195
		c-0.523,11.16,0.917,22.464,2.101,33.64c1.385,13.068,3.599,26.047,5.133,39.102c0.911,7.75,2.573,15.28,5.914,22.275
		c8.896,18.623,12.008,38.436,13.734,58.786c1.625,19.167,4.7,38.196,8.29,57.128c2.987,15.754,5.615,31.567,7.18,47.563
		c1.405,14.356,4.271,28.594,5.18,42.966c0.63,9.956,1.979,19.833,2.702,29.77c0.86,11.813,0.969,23.728,3.151,35.466
		c1.288,6.928,1.299,14.096,1.858,21.092c0.869,10.873,3.09,21.656,2.622,32.694c-0.352,8.319-0.61,16.698,1.416,25.023
		c0.959,3.942-0.128,8.266-0.573,12.448c-1.221,11.468-2.593,23.056,0.936,34.44c-19.378,0-38.755,0-58.133,0
		c-3.355-3.468-4.031-7.963-4.793-12.434c-9.764-57.308-17.45-114.857-21.69-172.878c-1.974-27.017-7.16-53.735-8.512-80.865
		c-0.369-7.411-1.57-14.867-0.722-22.218c3.16-27.382,0.344-54.885,1.906-82.246c2.192-38.392,0.278-76.843,2.196-115.172
		c2.709-54.133,7.239-108.199,5.211-162.446c-0.77-20.604-0.907-41.272-3.173-61.815c-0.918-8.318-0.53-16.642,0.091-24.934
		c-0.207,31.262,1.234,62.503,2.401,93.729c0.676,18.079,0.956,36.058-0.054,54.137c-1.313,23.514-2.956,47-4.815,70.468
		c-2.681,33.848-0.416,67.809-2.291,101.6c-1.613,29.066-1.029,58.075-1.504,87.107c-0.159,9.698-1.776,19.249-2.107,28.954
		c-1.206,35.354,3.331,70.217,7.611,105.155c4.747,38.75,5.347,77.93,11.853,116.511c3.597,21.33,6.373,42.795,10.428,64.052
		c0.838,4.391,2.304,8.83,0.212,13.293C1489.323,2000,1476.405,2000,1463.487,2000z"/>
	<path style="fill:#1F2437;" d="M678.688,2000c-0.389-15.158,2.143-30.083,3.37-45.114c1.099-13.459,3.135-26.78,4.557-40.182
		c1.555-14.658,4.177-29.202,6.332-43.797c1.076-7.292,2.286-14.568,3.18-21.883c0.855-6.996,2.287-8.762,9.123-7.659
		c6.057,0.977,12.25,0.918,18.155,2.058c13.816,2.667,27.667,1.666,41.468,1.408c15.609-0.291,26.466-9.546,34.162-22.136
		c4.487-7.339,9.902-12.096,18.122-14.667c16.278-5.091,32.375-10.966,49.153-14.036c14.146-2.588,28.33-3.983,43.055-2.113
		c14.898,1.893,30.212,1.852,45.311-0.395c5.393-0.802,10.926-0.723,16.287-1.666c11.802-2.076,22.845-6.482,33.525-11.837
		c15.305-7.672,31.047-14.138,48.006-17.193c2.206-0.397,4.419-0.841,6.647-1.003c3.725-0.271,5.31,1.57,4.835,5.296
		c-3.444,26.994-2.454,54.194-1.116,81.13c2.547,51.283,0.455,102.536,1.445,153.788C935.766,2000,807.227,2000,678.688,2000z"/>
	<path style="fill:#1F2437;" d="M1207.61,883.931c12.014,9.725,23.506,20.021,34.203,31.191
		c9.843,10.278,20.617,19.454,32.755,26.914c7.055,4.336,11.15,11.484,16.599,17.288c4.15,4.42,8.1,9.132,12.297,13.576
		c1.329,1.407,2.778,2.735,3.904,4.293c6.093,8.432,5.283,10.825-4.726,14.258c-3.046,1.045-6.199,1.821-9.164,3.054
		c-5.845,2.429-6.66,4.756-4.047,10.406c1.508,3.262,3.611,6.051,6.188,8.573c13.119,12.841,26.063,25.867,42.393,34.816
		c3.094,1.695,5.915,3.898,8.823,5.922c7.606,5.296,13.135,11.374,14.556,21.523c2.4,17.136,4.99,34.249,7.364,51.399
		c2.682,19.381,4.432,38.865,7.034,58.257c2.214,16.499,3.425,33.202,4.68,49.861c1.201,15.95,2.355,31.971,4.985,47.838
		c2.096,12.646,2.824,25.512,4.473,38.239c2.018,15.583,3.969,31.192,6.647,46.669c5.962,34.451,12.689,68.771,18.472,103.251
		c4.569,27.242,8.172,54.639,7.868,82.386c-0.179,16.374,0.735,32.812-0.416,49.111c-2.063,29.225-3.49,58.44-3.819,87.735
		c-0.09,7.982-2.687,16.006-1.488,24c2.296,15.304,0.669,30.821,3.221,46.129c1.312,7.867,1.371,15.981,2.085,23.977
		c2.627,29.424,6.836,58.593,11.433,87.759c4.945,31.376,10.366,62.66,16.052,93.903c2.065,11.348,4.287,22.685,7.688,33.741
		c-15.502,0-31.004,0-46.507,0c-4.474-28.184-8.773-56.4-13.113-84.601c-3.557-23.112-6.481-46.366-8.557-69.732
		c-2.242-25.236-4.613-50.499-7.684-75.65c-2.951-24.174-6.643-48.271-10.751-72.31c-3.941-23.063-7.916-46.148-10.535-69.452
		c-2.362-21.016-6.613-41.821-8.918-62.841c-1.678-15.302-3.467-30.614-4.715-45.989c-1.582-19.493-2.438-39.053-4.894-58.512
		c-1.725-13.667-2.76-27.459-4.441-41.162c-1.874-15.276-3.99-30.532-5.377-45.854c-1.072-11.842-2.765-23.584-4.149-35.375
		c-2.547-21.7-6.711-43.109-10.709-64.549c-6.117-32.805-13.372-65.379-18.921-98.313c-6.099-36.199-16.051-71.395-29.298-105.771
		c-8.214-21.317-16.464-42.626-24.942-63.839c-3.942-9.862-8.579-19.464-13.264-29.006c-5.77-11.753-8.047-24.314-9.711-37.119
		c-1.993-15.335-5.46-30.339-10.705-44.926c-1.291-3.59-3.159-7.123-2.777-11.164L1207.61,883.931z"/>
	<path style="fill:#010001;" d="M1502.242,2000c-3.888-12.608-5.564-25.665-7.697-38.617c-2.448-14.867-4.743-29.763-6.802-44.688
		c-1.972-14.291-3.792-28.594-5.202-42.971c-1.221-12.449-1.096-24.979-3.056-37.411c-1.289-8.176-1.348-16.608-2.279-24.923
		c-1.642-14.658-3.457-29.281-5.487-43.891c-1.324-9.526-2.163-19.184-2.317-28.797c-0.723-45.452,1.416-90.886,2.496-136.296
		c0.735-30.922-0.485-61.903,1.66-92.733c1-14.378,0.524-28.879,3.036-43.216c1.6-9.131,1.554-18.613,1.935-27.843
		c0.956-23.146,4.313-46.338,2.091-69.474c-2.011-20.932-0.76-41.865-1.989-62.737c-0.509-8.641-1.814-17.276-1.418-25.955
		c0.394-8.655,1.268-17.29,2.052-25.923c0.108-1.185,0.64-2.546,2.49-2.694c0.277,0.322,0.962,0.752,0.947,1.155
		c-0.79,20.635,1.13,41.197,2.306,61.737c2.102,36.725,2.158,73.449,1.58,110.178c-0.237,15.05-1.166,30.152-3.434,45.101
		c-0.24,1.585-0.124,3.22-0.236,4.828c-2.762,39.593-0.419,79.317-2.427,118.866c-1.736,34.18-0.815,68.305-1.527,102.446
		c-0.122,5.825-2.182,11.319-1.897,17.232c1.037,21.486,2.43,42.897,5.222,64.273c1.782,13.648,3.773,27.319,4.676,41.126
		c1.234,18.869,4.023,37.635,5.294,56.504c1.73,25.67,6.778,50.855,10.178,76.277c2.166,16.196,5.015,32.3,7.558,48.446
		C1507.409,2000,1504.826,2000,1502.242,2000z"/>
	<path style="fill:#737473;" d="M901.609,575.846c1.065,0.331,1.49,1.081,0.4,1.636c-1.228,0.625-2.231,0-2.535-1.442
		C900.186,575.976,900.898,575.911,901.609,575.846z"/>
	<path style="fill:#A9A6A6;" d="M945.947,990.729c-1.747-1.587-1.626-3.836-2.084-5.879c-0.379-1.688-1.775-3.889,1.805-3.583
		c0.756,1.802,1.513,3.605,2.27,5.407C946.329,987.561,946.504,989.325,945.947,990.729z"/>
	<path style="fill:#EFEAEA;" d="M1144.5,1773.178c0.383-0.333,0.771-0.947,1.148-0.941c1.03,0.018,1.469,0.789,1.067,1.69
		c-0.156,0.349-1.015,0.656-1.421,0.536C1144.935,1774.358,1144.758,1773.632,1144.5,1773.178z"/>
	<path style="fill:#4B4B4B;" d="M1255.889,1062.274c-2.568-3.749-1.123-7.86-1.896-12.541c3.389,1.956,4.342,4.043,3.974,6.809
		C1255.382,1057.766,1257.095,1060.549,1255.889,1062.274z"/>
	<path style="fill:#1F2437;" d="M601.224,1625.982c22.599,3.601,44.005,11.588,66.791,17.498c-2.015,2.932-4.454,3.276-6.668,4.151
		c-16.199,6.409-27.02,17.846-33.301,34.193c-6.194,16.122-9.22,32.545-9.836,49.831c-0.341,9.581-1.488,19.204-1.522,28.86
		c-0.054,15.187,2.292,30.043,5.585,44.831c1.226,5.505,4.053,10.151,6.311,15.109c1.818,3.995,0.414,5.348-3.536,5.222
		c-1.29-0.041-2.591,0.067-3.873-0.049c-22.044-1.994-44.124-3.578-65.943-7.632c-21.126-3.925-39.543-13.62-56.352-26.426
		c-14.637-11.151-27.656-23.95-38.361-39.187c-9.279-13.208-15.413-27.37-17.895-43.238c-3.628-23.193-8.204-46.372-6.066-69.978
		c2.635-29.09,5.055-58.296,15.473-86.005c2.957-7.864,6.786-15.366,11.215-22.478c11.975-19.228,18.265-40.493,21.427-62.56
		c3.382-23.598,7.72-46.915,15.164-69.551c7.445-22.639,15.524-45.068,23.101-67.664c7.733-23.062,7.634-46.683,5.296-70.618
		c-1.406-14.394-0.659-28.904,0.154-43.426c1.393-24.875,13.463-46.179,21.419-68.809c10.678-30.371,20.265-61.084,30.157-91.7
		c3.38-10.462,6.758-20.642,13.096-29.877c5.857-8.533,13.435-14.721,22.164-19.664c8.132-4.606,16.654-8.384,25.655-11.194
		c28.363-8.853,55.703-20.255,82.049-34.003c25.742-13.432,52.309-24.997,79.177-35.981c14.01-5.728,27.41-12.935,39.774-21.854
		c2.548-1.838,5.266-3.441,9.425-6.138c-3.12,8.085-5.726,14.518-8.096,21.038c-6.272,17.254-9.87,35.33-16.196,52.589
		c-2.6,7.092-0.392,12.268,5.848,16.804c5.238,3.807,11.136,6.466,16.837,9.477c5.961,3.148,6.365,5,2.069,10.339
		c-2.414,3-5.078,6.018-8.221,8.161c-5.139,3.505-8.979,8.339-13.703,12.193c-11.352,9.261-12.65,20.434-8.228,33.737
		c6.304,18.964,13.297,37.659,20.846,56.131c15.105,36.96,29.198,74.308,43.63,111.528c10.24,26.408,21.609,52.377,31.915,78.76
		c10.307,26.385,19.908,53.045,29.841,79.577c10.27,27.433,20.535,54.868,30.86,82.28c9.873,26.209,19.809,52.394,29.745,78.579
		c2.168,5.714,4.105,11.556,6.821,17.004c1.507,3.024,1.537,4.575-1.566,6.018c-33.719,15.684-63.331,38.221-95.189,57.005
		c-19.054,11.234-39.787,18.013-61.884,20.443c-16.928,1.862-33.909,3.029-50.858,4.442c-11.125,0.927-22.495,0.059-33.566,2.924
		c-5.194,1.344-10.534,0.514-15.553-3.067c-7.125-5.082-15.62-7.748-24.094-9.701c-4.583-1.057-5.678-3.263-5.425-7.359
		c0.218-3.539,0.006-7.102,0.104-10.651c0.947-34.513-1.909-68.944-2.542-103.427c-0.388-21.129-1.253-42.418-3.511-63.515
		c-2.296-21.446-2.743-42.982-4.144-64.459c-1.647-25.254-2.646-50.578-6.821-75.729c-4.043-24.359-7.967-48.744-12.281-73.063
		c-0.44-2.48-1.03-4.939-3.156-7.744c-2.18,12.159,0.711,23.296,2.061,34.446c2.081,17.186,4.83,34.29,6.978,51.468
		c0.559,4.468,1.846,8.753,2.143,13.316c0.697,10.746-1.356,21.191-2.708,31.685c-1.844,14.311-3.866,28.593-5.278,42.96
		c-1.161,11.813-1.943,23.745-4.321,35.331c-1.959,9.545-2.051,19.234-2.786,28.72c-1.065,13.743-1.833,27.639-2.948,41.368
		c-1.917,23.609,0.015,47.727-7.432,70.739c-4.551,14.064-8.329,28.43-16.655,41.034c-2.586,3.914-4.824,4.75-9.466,3.585
		c-16.18-4.059-32.346-8.511-49.241-8.58c-5.08-1.026-10.268,0.19-13.534-0.845C593.809,1623.276,597.846,1623.231,601.224,1625.982
		z"/>
	<path style="fill:#E1C4B2;" d="M1099.159,406.145c22.353-3.655,44.719,4.938,65.36,19.84c6.794,4.905,14.274,8.865,21.024,13.824
		c31.825,23.383,49.98,54.705,55.311,93.944c3.476,25.581,1.074,50.925-1.151,76.281c-1.52,17.317-2.541,34.775-6.715,51.77
		c-3.078,12.53-5.946,25.098-8.086,37.826c-0.16,0.949-0.425,1.892-0.742,2.803c-15.094,43.459-32.428,85.676-64,120.443
		c-17.153,18.888-37.181,33.786-59.572,45.788c-17.598,9.433-34.986,9.611-52.676,0.223c-7.73-4.102-15.237-8.49-22.091-13.892
		c-23.189-18.277-43.968-38.961-61.572-62.715c-19.959-26.933-29.741-57.621-33.348-90.633c-3.61-33.037-8.096-65.971-10.681-99.129
		c-1.095-14.044-0.129-27.845,3.296-41.292c8.353-32.804,17.499-65.407,22.438-98.982c0.373-2.534,1.252-4.995,1.907-7.487
		c4.628-17.586,15.317-29.213,32.833-34.976c16.992-5.591,34.483-8.25,52.101-10.298
		C1053.64,407.06,1074.568,405.684,1099.159,406.145z"/>
	<path style="fill:#E1C4B2;" d="M717.076,1718.57c-0.327-13.651,0.575-25.433,3.977-37.078c3.09-10.575,9.12-15.97,20.443-16.967
		c23.132-2.037,46.257-4.029,69.449-5.205c23.209-1.176,46.363-2.865,69.114-7.977c14.576-3.275,28.474-8.451,41.232-16.23
		c15.975-9.739,31.826-19.696,47.488-29.929c12.985-8.484,26.341-16.306,40.058-23.49c17.04-8.925,35.427-13.501,54.363-16.457
		c21.374-3.336,42.61-6.862,64.449-4.952c18.214,1.592,35.572,5.801,52.257,13.14c6.314,2.777,12.081,6.165,15.768,12.259
		c6.151,10.164,2.537,17.884-9.202,19.014c-4.783,0.46-9.739,0.413-14.489-0.277c-30.513-4.434-61.072-4.829-91.723-1.791
		c-7.73,0.766-15.338,2.068-22.808,4.147c-2.158,0.601-4.263,1.479-6.283,2.457c-1.831,0.886-3.117,2.421-2.852,4.602
		c0.27,2.219,1.983,3.32,3.951,3.72c4.166,0.845,8.37,0.662,12.473-0.405c22.491-5.846,45.417-6.212,68.298-4.294
		c22.544,1.889,44.772,5.873,65.042,16.947c5.988,3.271,11.417,7.288,16.424,11.885c2.63,2.415,4.945,5.157,6.406,8.432
		c2.975,6.667,0.622,11.271-6.464,13.061c-6.187,1.564-12.268,0.226-18.189-1.139c-22.97-5.295-46.162-9.234-69.55-12.061
		c-16.2-1.958-32.204,0.855-48.246,2.315c-4.781,0.435-9.712,0.326-14.309,2.162c-1.854,0.741-3.607,1.68-3.878,3.88
		c-0.333,2.694,1.383,4.177,3.612,5.077c5.165,2.087,10.651,2.625,16.129,2.76c7.098,0.174,14.208,0.106,21.307-0.085
		c30.753-0.825,60.2,5.818,89.143,15.411c8.312,2.755,14.788,7.919,19.102,15.492c4.57,8.024,1.309,14.801-7.83,16.385
		c-6.122,1.061-12.157,0.043-18.206-1.339c-21.365-4.879-42.519-10.909-64.391-13.21c-19.989-2.104-39.991-1.061-59.881,1.383
		c-4.919,0.605-11.733,1.75-11.637,8.073c0.101,6.686,7.131,6.087,11.997,7.117c18.49,3.914,37.345,1.706,55.989,3.248
		c10.002,0.827,19.941,1.668,29.564,4.582c5.669,1.716,10.646,4.573,13.7,10.032c3.735,6.675,2.769,11.624-3.654,15.753
		c-5.606,3.603-12.055,4.681-18.559,4.426c-8.699-0.342-17.434-0.806-26.052-1.973c-37.357-5.063-72.453,2.285-105.993,18.667
		c-2.608,1.274-5.226,2.532-7.787,3.896c-16.073,8.565-32.805,11.855-51.279,10.162c-20.203-1.852-40.637-1.232-60.973-1.544
		c-8.757-0.134-17.357,1.286-25.821,3.509c-6.237,1.638-12.618,2.872-18.68,5.007c-20.133,7.091-40.777,11.847-61.857,15.082
		c-9.215,1.414-18.344,3.667-27.333,6.18c-5.372,1.502-8.636-0.11-11.335-4.505c-5.266-8.575-9.23-17.742-12.235-27.298
		C720.795,1759.897,716.568,1738.772,717.076,1718.57z"/>
	<path style="fill:#1F2437;" d="M939.669,825.92c-4.157,9.465-7.915,17.619-11.332,25.914c-3.577,8.684-5.42,17.68-5.698,27.204
		c-0.708,24.339,3.223,47.92,8.82,71.521c2.787,11.754,3.393,24.106,5.903,36.046c5.489,26.108,12.358,51.859,19.305,77.613
		c8.7,32.254,16.979,64.64,24.53,97.18c5.799,24.991,10.15,50.317,15.218,75.479c6.717,33.348,13.434,66.697,20.288,100.017
		c5.302,25.778,9.953,51.639,12.978,77.81c1.433,12.401,4.202,24.659,6.64,36.927c0.574,2.887,0.748,5.719,0.918,8.609
		c0.234,3.98-0.695,6.069-5.309,7.375c-10.936,3.093-14.075,15.068-5.317,22.379c6.232,5.203,6.438,10.768,6.861,17.624
		c0.769,12.471,1.346,24.981,3.252,37.382c0.729,4.742,0.312,9.659,0.442,14.495c0.072,2.674-1.398,3.79-3.766,4.824
		c-8.33,3.637-9.115,3.258-12.271-5.122c-14.182-37.653-28.567-75.229-42.716-112.895c-9.621-25.613-18.988-51.323-28.44-77
		c-12.566-34.138-24.773-68.402-40.343-101.366c-5.624-11.908-10.356-24.303-14.618-36.776
		c-15.413-45.105-32.839-89.435-50.242-133.79c-5.745-14.643-11.919-29.183-15.926-44.507c-1.495-5.716-0.677-9.954,3.721-13.845
		c6.988-6.183,12.856-13.533,20.575-19.013c3.874-2.75,7.351-6.255,9.855-10.534c5.393-9.218,4.208-13.608-5.201-18.648
		c-5.394-2.89-11.147-5.076-16.2-8.646c-6.234-4.404-7.519-6.358-5.359-13.673c6.829-23.127,12.277-46.704,21.744-68.993
		c2.77-6.522,6.159-12.32,12.407-16.718c13.497-9.501,24.268-22.118,35.917-33.709c6.644-6.611,14.054-12.262,21.685-17.641
		C931.137,829.225,934.497,827.335,939.669,825.92z"/>
	<path style="fill:#2F1E16;" d="M1248.408,571.748c0.295-20.32-1.827-40.469-6.075-60.259c-4.317-20.11-13.664-38.188-26.444-54.257
		c-12.373-15.557-28.378-26.884-45.542-36.582c-8.129-4.593-15.563-10.31-24.158-14.171c-9.524-4.278-19.215-7.224-29.777-7.051
		c-10.65,0.174-21.317,0.365-31.954-0.045c-8.133-0.313-16.031,1.085-23.977,2.109c-24.147,3.109-48.706,3.357-72.369,9.801
		c-11.485,3.127-22.843,6.641-31.711,15.534c-7.075,7.095-11.279,15.644-14.116,24.936c-3.283,10.755-5.209,21.845-6.801,32.969
		c-2.376,16.597-7.756,32.46-11.63,48.689c-3.202,13.415-7.432,26.569-9.356,40.343c-0.77,5.514-1.478,10.895-0.945,16.619
		c-2.966-5.508-3.512-11.456-5.267-17.055c-6.919-22.065-13.331-44.266-17.453-67.103c-4.475-24.791-3.854-49.202,3.1-73.431
		c3.382-11.784,7.704-23.068,14.221-33.627c8.464-13.715,20.032-24.601,32.016-34.696c13.25-11.162,27.135-21.713,39.912-33.367
		c16.013-14.605,34.03-23.902,55.234-27.583c22.44-3.895,44.803-8.369,67.698-8.593c26.16-0.256,50.05,7.404,72.268,20.886
		c16.432,9.971,29.65,23.294,42.222,37.745c13.152,15.118,24.823,31.175,35.879,47.786c9.472,14.231,14.793,29.829,16.441,46.835
		c0.649,6.702,1.762,13.315,1.958,20.112c0.609,21.137-3.465,41.62-8.651,61.833c-3.972,15.481-9.555,30.55-14.421,45.802
		C1247.194,574.633,1247.311,573.225,1248.408,571.748z"/>
	<path style="fill:#E1C4B2;" d="M1189.963,797.722c-1.787,21.925-3.493,42.793-3.564,63.793
		c-0.053,15.919,1.943,31.539,4.668,47.105c1.82,10.395,1.287,20.527-1.389,30.661c-5.677,21.5-10.834,43.149-17.056,64.489
		c-5.516,18.919-14.301,36.595-23.053,54.217c-0.601,1.21-1.473,2.083-3.516,2.664c-2.76-6.664-5.589-13.411-8.351-20.185
		c-6.05-14.839-15.633-26.782-29.688-34.591c-29.946-16.637-55.032-39.384-79.654-62.721
		c-17.342-16.438-34.031-33.537-50.296-51.044c-7.933-8.539-15.12-17.625-20.462-28.071c-5.077-9.929-8.173-20.205-7.472-31.578
		c0.796-12.924-1.378-25.752-2.023-38.634c-0.153-3.061-0.023-6.137-0.023-11.664c2.793,4.296,4.222,6.647,5.799,8.895
		c20.975,29.888,46.415,55.317,76.444,76.092c4.49,3.106,9.4,5.638,14.24,8.201c20.144,10.668,40.04,9.856,60.126-0.682
		c31.8-16.684,57.899-39.647,78.358-69.119C1184.824,803,1185.976,799.826,1189.963,797.722z"/>
	<path style="fill:#DAD4D4;" d="M1050.191,1112.739c-3.005-1.654-3.783-3.904-4.841-5.829
		c-14.049-25.562-31.674-48.57-50.382-70.813c-11.627-13.823-23.158-27.728-33.222-42.758
		c-13.752-20.538-24.311-42.274-28.058-67.174c-1.915-12.721-4.894-25.245-5.204-38.211c-0.452-18.879,5.379-36.143,12.991-52.997
		c0.327-0.725,0.529-2.031,2.497-1.497c-0.888,22.833,10.398,40.999,24.708,57.41c31.018,35.573,65.512,67.607,101.965,97.53
		c5.962,4.894,12.537,9.066,18.998,13.314c2.856,1.878,3.425,3.702,2.805,7.168c-2.234,12.478-6.469,24.292-11.449,35.812
		c-9.2,21.283-18.84,42.376-28.324,63.535C1052.024,1109.677,1051.143,1111.022,1050.191,1112.739z"/>
	<path style="fill:#DAD4D4;" d="M736.786,1656.933c-13.186,2.948-20.166,11.74-23.159,24.403
		c-6.137,25.964-4.723,51.863,0.805,77.67c3.106,14.501,6.854,28.85,13.288,42.325c1.249,2.616,2.525,5.231,3.968,7.743
		c6.216,10.82,9.999,12.495,22.143,9.698c10.987-2.531,21.945-5.182,32.916-7.784c2.493-0.592,4.961-1.43,8.737-0.445
		c-5.166,12.133-12.276,21.545-25.563,24.845c-5.021,1.246-10.173,1.603-15.359,1.67c-18.12,0.236-36.093-1.657-53.985-4.092
		c-17.601-2.396-35.304-3.508-52.979-4.909c-5.218-0.414-8.114-2.605-10.682-6.714c-8.674-13.876-11.119-29.448-12.322-45.26
		c-1.745-22.932,0.113-45.747,3.263-68.478c1.297-9.357,4.563-18.083,8.269-26.684c4.639-10.767,12.065-19.043,22.49-24.391
		c7.157-3.672,14.56-6.862,21.829-10.319c2.503-1.191,5.077-0.531,7.614-0.473c17.814,0.41,35.297,3.152,52.534,7.583
		C741.751,1657.086,737.641,1655.292,736.786,1656.933z"/>
	<path style="fill:#F0F0F0;" d="M1191.339,1498.364c-2.191,23.707-3.468,46.723-3.057,70.04
		c-63.601-23.603-84.668-16.576-144.865-6.793c-0.546-21.733-3.156-43.208-4.588-65.359
		C1089.785,1495.01,1139.889,1502.311,1191.339,1498.364z"/>
	<path style="fill:#2C2C2E;" d="M1114.771,1449.687c8.394-0.007,16.791,0.139,25.18-0.04c13.264-0.283,26.221,2.183,39.25,4.042
		c6.179,0.881,9.734,4.511,10.991,10.577c0.521,2.514,1.256,4.983,1.899,7.471c0.7,2.706,1.881,4.995,5.226,4.377
		c2.976-0.55,3.941,1.32,4.962,3.461c2.75,5.766,1.888,8.543-4.338,9.724c-7.858,1.49-15.882,2.666-23.86,2.846
		c-17.746,0.4-35.61,1.288-53.24-0.214c-23.856-2.032-47.678-0.947-71.5-1.728c-4.778-0.156-9.585-1.096-14.261-2.181
		c-4.046-0.939-7.315-3.527-6.794-8.097c0.438-3.84,1.776-7.322,7.204-7.23c4.66,0.079,7.387-2.435,7.759-7.845
		c0.484-7.046,3.521-9.685,10.973-11.145c12.952-2.538,25.942-4.635,39.244-4.066
		C1100.556,1449.943,1107.669,1449.693,1114.771,1449.687z"/>
	<path style="fill:#FFFFFF;" d="M709.482,1387.799c1.407,46.058,6.404,91.92,7.546,137.993c0.847,34.161,1.772,68.321,2.529,102.484
		c0.091,4.098,0.734,8.365-1.307,12.604c-16.11-3.2-32.762-1.478-49.727-5.333c6.069-9.255,9.564-18.838,13.351-28.342
		c9.743-24.457,11.003-50.169,12.209-75.93c1.838-39.27,4.145-78.5,9.198-117.52c1.116-8.621,1.875-17.288,2.798-25.934
		C707.206,1386.571,708.34,1386.575,709.482,1387.799z"/>
	<path style="fill:#DAD4D4;" d="M1193.333,868.252c8.584,19.454,16.404,39.091,20.228,60.048c1.098,6.017,1.824,12.107,2.566,18.182
		c2.102,17.201,8.109,33.087,15.953,48.4c11.026,21.526,17.527,44.283,18.236,68.56c0.094,3.223,0.086,6.457-0.06,9.678
		c-0.467,10.32-2.441,11.354-11.432,5.535c-12.823-8.299-22.595-19.214-27.336-33.996c-2.753-8.584-5.153-17.285-7.555-25.977
		c-2.876-10.403-8.069-19.157-18.187-23.755c-4.959-2.254-3.408-5.552-2.585-8.806c3.241-12.803,6.165-25.717,10.141-38.295
		c5.416-17.131,5.516-34.129,1.69-51.523C1192.988,887.19,1191.893,877.851,1193.333,868.252z"/>
	<path style="fill:#E1C4B2;" d="M874.684,605.687c-0.027-8.635,0.664-16.011,3.518-22.95c2.753-6.693,5.394-7.777,11.991-5.164
		c9.555,3.786,16.682,9.083,19.957,20.177c3.424,11.598,4.711,23.268,6.079,35.046c2.265,19.494,4.343,39.01,6.409,58.526
		c1.026,9.693-2.796,12.963-12.201,10.434c-6.167-1.658-10.727-5.695-14.477-10.696c-2.732-3.642-4.86-7.705-5.882-12.085
		c-5.181-22.21-12.359-43.978-14.979-66.759C874.804,609.663,874.768,607.079,874.684,605.687z"/>
	<path style="fill:#E1C4B2;" d="M1285.439,602.568c0.189,11.134-2.94,22.295-5.958,33.481
		c-4.653,17.246-13.559,32.588-21.701,48.256c-2.229,4.289-5.536,7.908-9.935,10.289c-3.621,1.96-7.296,2.53-10.95,0.182
		c-3.698-2.376-3.025-5.803-2.421-9.458c1.889-11.419,5.569-22.477,6.693-34.048c0.963-9.919,2.498-19.801,3.029-29.74
		c0.798-14.947,4.377-29.104,9.647-43.052c2.756-7.294,8.44-9.394,14.846-10.309c6.171-0.881,9.073,4.13,11.62,8.591
		C1284.75,584.539,1285.742,593.152,1285.439,602.568z"/>
	<path style="fill:#E8E8E8;" d="M1075.963,1705.728c30.855-2.891,60.917,1.767,90.654,9.518c1.513,0.395,3.504,0.361,3.777,2.318
		c0.301,2.156-1.299,3.635-3.019,4.45c-3.034,1.438-6.476,1.593-9.295-0.089c-16.576-9.888-35.172-9.18-53.37-10.301
		c-14.09-0.868-28.343,1.035-42.281-2.507c-0.659-0.353-0.897-0.737-0.716-1.15c0.187-0.428,0.383-0.642,0.589-0.642l-0.028,0.008
		C1066.645,1705.156,1071.573,1707.743,1075.963,1705.728z"/>
	<path style="fill:#C9C9C9;" d="M1165.072,1610.559c4.803-1.349,9.576,0.019,14.356,0.219c2.204,0.093,5.039,0.489,4.452,3.549
		c-0.492,2.56-2.954,1.659-4.781,1.22c-4.671-1.122-9.335-2.271-14.001-3.409c-0.646-0.341-0.864-0.688-0.657-1.043
		C1164.648,1610.738,1164.857,1610.559,1165.072,1610.559z"/>
	<path style="fill:#080910;" d="M601.224,1625.982c-5.48-0.931-11.193-1.018-16.018-4.621c6.573,1.717,13.628-0.862,19.927,2.67
		C603.568,1624.156,602.065,1624.406,601.224,1625.982z"/>
	<path style="fill:#C6C7C6;" d="M1163.191,1666.527c-5.34-0.599-10.583-1.602-15.561-3.718c-0.632-0.382-0.841-0.764-0.632-1.147
		c0.209-0.382,0.419-0.574,0.631-0.574c6.166,0.225,12.238,0.961,18.021,3.287
		C1165.35,1665.686,1164.027,1665.829,1163.191,1666.527z"/>
	<path style="fill:#A6A6A7;" d="M1105.395,1659.277c-3.854,1.957-7.906,2.007-12.042,1.247c-1.399-0.515-2.252-1.356-1.791-2.986
		c3.21-0.89,6.447-0.724,9.691-0.242C1102.384,1658.478,1104.577,1657.441,1105.395,1659.277z"/>
	<path style="fill:#ADADAE;" d="M1114.616,1657.31c5.292-0.381,10.631-1.254,15.623,1.494c0.643,0.407,0.854,0.81,0.636,1.209
		c-0.217,0.396-0.434,0.595-0.653,0.595c-5.194-0.598-10.388-1.195-15.583-1.793c-0.596-0.326-0.797-0.656-0.606-0.995
		C1114.225,1657.481,1114.418,1657.31,1114.616,1657.31z"/>
	<path style="fill:#1C1D24;" d="M1300.799,955.512c-0.696,0.701-1.392,1.401-2.089,2.102c-2.412-1.824-4.824-3.65-8.49-6.424
		C1296.037,950.265,1297.967,953.918,1300.799,955.512z"/>
	<path style="fill:#E9E9EA;" d="M1163.191,1666.527c0.82-0.717,1.639-1.435,2.458-2.152c3.344,0.319,6.83-0.06,9.819,2.002
		c-0.095,1.113-0.807,1.766-1.701,2.283c-0.319,0.09-0.64,0.178-0.962,0.265C1169.437,1668.782,1166.307,1667.68,1163.191,1666.527z
		"/>
	<path style="fill:#B4B4B4;" d="M709.482,1387.799c-1.134,0.007-2.269,0.014-3.403,0.021c0.028-1.968,0.057-3.935,0.085-5.903
		c1.328-1.075-0.42-4.827,3.315-3.806C709.806,1381.34,710.241,1384.569,709.482,1387.799z"/>
	<path style="fill:#909090;" d="M709.479,1378.111c-1.105,1.269-2.21,2.537-3.315,3.806c-0.522-4.024,1.346-7.715,1.616-11.629
		c0.63-0.893,1.181-0.89,1.641,0.144C709.441,1372.992,709.46,1375.551,709.479,1378.111z"/>
	<path style="fill:#D8D9D9;" d="M1114.616,1657.31c-0.052,0.503-0.044,1.005,0.024,1.506c-3.082,0.154-6.163,0.308-9.245,0.462
		c-1.38-0.661-2.761-1.321-4.141-1.982C1105.709,1656.262,1110.162,1656.801,1114.616,1657.31z"/>
	<path style="fill:#BCBBBD;" d="M1075.963,1705.728c-4.294,2.823-9.064,1.594-13.688,1.606
		C1066.578,1704.591,1071.306,1705.463,1075.963,1705.728z"/>
	<path style="fill:#535252;" d="M945.668,981.267c-1.428,0.778-1.286,2.347-1.805,3.583c-0.543-1.121-1.254-2.195-1.583-3.375
		c-0.327-1.175-0.421-3.152,0.659-3.343C944.804,977.8,945.307,979.703,945.668,981.267z"/>
	<path style="fill:#989595;" d="M736.786,1656.933c1.269-1.203,2.539-2.406,3.808-3.609c1.245-0.25,2.538-0.363,3.213,0.917
		c0.109,0.207-1.003,1.262-1.703,1.65C740.469,1656.797,738.712,1657.374,736.786,1656.933z"/>
	<path style="fill:#959595;" d="M1137.876,1659.193c2.271-0.406,4.421-0.298,6.179,1.463c-0.167,1.203-1.308,1.295-2.073,1.816
		c-1.602,0.463-3.035,0.293-4.138-1.107c-0.605-0.492-0.802-0.977-0.591-1.457
		C1137.462,1659.431,1137.669,1659.193,1137.876,1659.193z"/>
	<path style="fill:#BFBFBD;" d="M1137.876,1659.193c-0.011,0.724-0.021,1.448-0.032,2.172c-2.541-0.252-5.081-0.504-7.622-0.756
		c0.019-0.602,0.025-1.203,0.017-1.804C1132.785,1658.933,1135.33,1659.063,1137.876,1659.193z"/>
	<path style="fill:#989898;" d="M1091.562,1657.537c0.597,0.996,1.194,1.991,1.791,2.986c-0.305,0.069-0.609,0.188-0.917,0.199
		c-1.447,0.053-3.601,0.934-4.05-0.746C1087.862,1658.012,1090.153,1657.963,1091.562,1657.537z"/>
	<path style="fill:#9C9C9C;" d="M1176.846,1666.55c2.111,0.623,2.329,2.112,0.895,3.313c-1.715,1.437-3.47,0.383-4.936-0.938
		l-0.261-0.484l0.334-0.436C1174.276,1667.725,1175.823,1667.853,1176.846,1666.55z"/>
	<path style="fill:#C6C7C7;" d="M1141.982,1662.471c0.691-0.605,1.382-1.21,2.073-1.816c1.191,0.144,2.382,0.288,3.574,0.432
		c0.001,0.574,0.001,1.148,0.001,1.722C1145.747,1662.696,1143.865,1662.584,1141.982,1662.471z"/>
	<path style="fill:#6C6C6C;" d="M1248.408,571.748c0.099,1.392,0.198,2.785,0.297,4.177c-0.868,0.809-1.772,0.891-2.087-0.375
		C1246.213,573.916,1246.38,572.338,1248.408,571.748z"/>
	<path style="fill:#ECEAEC;" d="M1176.846,1666.55c-0.676,2.248-2.347,1.783-3.968,1.455c0.863-0.543,1.726-1.086,2.59-1.629
		C1175.976,1666.044,1176.436,1666.102,1176.846,1666.55z"/>
	<path style="fill:#555655;" d="M709.421,1370.432c-0.545-0.066-1.092-0.115-1.641-0.144c0.211-0.825,0.483-2.377,0.623-2.365
		C710.194,1368.075,709.503,1369.398,709.421,1370.432z"/>
	<path style="fill:#434647;" d="M1207.707,883.836c-0.95-0.312-1.605-0.926-1.582-1.953c0.005-0.209,0.679-0.404,1.045-0.605
		c0.147,0.884,0.295,1.768,0.442,2.652C1207.61,883.931,1207.707,883.836,1207.707,883.836z"/>
	<path style="fill:#BCBBBD;" d="M1062.302,1707.326c0.153,0.589,0.195,1.186,0.127,1.792c-1.216,0.006-3.108,0.878-3.121-1.097
		C1059.301,1706.954,1061.148,1707.083,1062.302,1707.326z"/>
	<path style="fill:#BEBCBB;" d="M1165.072,1610.559c0.043,0.526,0.052,1.052,0.025,1.579c-1.062,0.158-2.422,0.455-2.165-1.217
		C1163.05,1610.149,1164.225,1610.018,1165.072,1610.559z"/>
</g>
</svg>
